<svg width="82" height="34" viewBox="0 0 82 34" fill="none" xmlns="http://www.w3.org/2000/svg"><path d="M66.021 7.222c2.088 0 3.78-1.605 3.78-3.585S68.109.052 66.02.052c-2.087 0-3.779 1.605-3.779 3.585s1.692 3.585 3.78 3.585zm-2.872 4.944V32.59c0 1.104 1.488 1.393 2.975 1.393 1.488 0 2.976-.289 2.976-1.393V12.166c0-1.479-1.488-1.682-2.976-1.682-1.47 0-2.975.204-2.975 1.682zM75.65 1.682V32.59c0 1.104 1.487 1.393 2.974 1.393 1.488 0 2.976-.289 2.976-1.393V1.682C81.6.204 80.112 0 78.625 0c-1.471 0-2.976.204-2.976 1.682zM32.915 21.851c0-6.423 5.164-12.149 12.62-12.149 7.421 0 12.705 5.624 12.705 12.115C58.24 28.8 52.375 34 45.603 34c-7.507-.017-12.688-5.743-12.688-12.149zm12.603 7.187c3.967 0 6.942-3.245 6.942-7.238 0-3.993-2.975-7.153-6.942-7.153s-6.891 3.211-6.891 7.204 2.924 7.187 6.89 7.187zm-16.021-1.312c0 3.109-7.302 6.252-12.38 6.252-6.225 0-12.056-3.313-15.03-8.648C.683 22.849 0 20.028 0 17.208c0-3.28.94-6.559 2.787-9.363 1.47-2.242 4.258-5.233 9.166-6.83 1.23-.408 3.454-.986 5.95-.986 7.011 0 11.423 4.877 11.423 9.142 0 2.922-2.394 7.085-8.26 7.085-2.684 0-3.59-1.121-3.59-2.412 0-1.734 1.624-3.756 2.804-3.756.496 0 .804.493 1.761.357.94-.136 1.437-.764 1.437-1.546 0-1.478-1.762-3.45-5.506-3.45-1.197 0-2.6.205-4.224.697-3.334 1.003-5.164 3.382-6.139 4.86a11.348 11.348 0 00-1.846 6.219c0 1.852.461 3.704 1.368 5.335 1.966 3.5 5.83 5.692 9.986 5.692 5.728 0 7.335-3.058 8.498-3.551 2.052-.9 3.882 1.563 3.882 3.024z" fill="#000"/></svg>