<svg width="32" height="32" viewBox="0 0 32 32" fill="none" xmlns="http://www.w3.org/2000/svg"><path d="M18.667 6.222H8.889c-.978 0-1.778.8-1.778 1.778v11.555c0 .49.4.89.889.89s.889-.4.889-.89V8.89c0-.489.4-.889.889-.889h8.889c.488 0 .888-.4.888-.889s-.4-.889-.888-.889zm.524 4.08l4.293 4.293c.33.33.516.783.516 1.254v8.15c0 .979-.8 1.779-1.778 1.779h-9.787c-.977 0-1.768-.8-1.768-1.778l.008-12.444c0-.978.792-1.778 1.77-1.778h5.484c.471 0 .924.186 1.262.524zM18.667 16h4l-4.89-4.889v4c0 .489.4.889.89.889z" fill="#A4A8B1"/></svg>